<?xml version="1.0" encoding="utf-8" standalone="no"?>
<!DOCTYPE svg PUBLIC "-//W3C//DTD SVG 1.1//EN"
  "http://www.w3.org/Graphics/SVG/1.1/DTD/svg11.dtd">
<svg xmlns:xlink="http://www.w3.org/1999/xlink" width="500.84375pt" height="323.39625pt" viewBox="0 0 500.84375 323.39625" xmlns="http://www.w3.org/2000/svg" version="1.1">
 <metadata>
  <rdf:RDF xmlns:dc="http://purl.org/dc/elements/1.1/" xmlns:cc="http://creativecommons.org/ns#" xmlns:rdf="http://www.w3.org/1999/02/22-rdf-syntax-ns#">
   <cc:Work>
    <dc:type rdf:resource="http://purl.org/dc/dcmitype/StillImage"/>
    <dc:date>2026-08-25T07:45:16.462114</dc:date>
    <dc:format>image/svg+xml</dc:format>
    <dc:creator>
     <cc:Agent>
      <dc:title>Matplotlib v3.10.3, https://matplotlib.org/</dc:title>
     </cc:Agent>
    </dc:creator>
   </cc:Work>
  </rdf:RDF>
 </metadata>
 <defs>
  <style type="text/css">*{stroke-linejoin: round; stroke-linecap: butt}</style>
 </defs>
 <g id="figure_1">
  <g id="patch_1">
   <path d="M 0 323.39625 
L 500.84375 323.39625 
L 500.84375 0 
L 0 0 
z
" style="fill: #ffffff"/>
  </g>
  <g id="axes_1">
   <g id="patch_2">
    <path d="M 47.24375 299.518125 
L 493.64375 299.518125 
L 493.64375 22.318125 
L 47.24375 22.318125 
z
" style="fill: #ffffff"/>
   </g>
   <g id="FillBetweenPolyCollection_1">
    <path d="M 322.99278 188.899473 
L 217.89472 188.899473 
L 215.626034 187.350167 
L 213.401662 185.80086 
L 211.227011 184.251554 
L 209.106332 182.702247 
L 207.042682 181.152941 
L 205.037911 179.603634 
L 203.092661 178.054328 
L 201.206385 176.505021 
L 199.377386 174.955714 
L 197.602858 173.406408 
L 195.878946 171.857101 
L 194.2008 170.307795 
L 192.562647 168.758488 
L 190.957854 167.209182 
L 189.379001 165.659875 
L 187.817953 164.110569 
L 186.265939 162.561262 
L 184.713629 161.011956 
L 183.15123 159.462649 
L 181.568573 157.913342 
L 179.955227 156.364036 
L 178.300616 154.814729 
L 176.594151 153.265423 
L 174.825373 151.716116 
L 172.984114 150.16681 
L 171.060664 148.617503 
L 169.045948 147.068197 
L 166.931711 145.51889 
L 164.710699 143.969583 
L 162.376841 142.420277 
L 159.925414 140.87097 
L 157.353205 139.321664 
L 154.658638 137.772357 
L 151.841886 136.223051 
L 148.904946 134.673744 
L 145.851686 133.124438 
L 142.687855 131.575131 
L 139.42105 130.025825 
L 136.060663 128.476518 
L 132.617777 126.927211 
L 129.105043 125.377905 
L 125.536531 123.828598 
L 121.927558 122.279292 
L 118.2945 120.729985 
L 114.654601 119.180679 
L 111.025779 117.631372 
L 107.426429 116.082066 
L 103.875243 114.532759 
L 100.391034 112.983452 
L 96.992576 111.434146 
L 93.69846 109.884839 
L 90.526962 108.335533 
L 87.495922 106.786226 
L 84.62264 105.23692 
L 81.923771 103.687613 
L 79.415232 102.138307 
L 77.112104 100.589 
L 75.028533 99.039694 
L 73.177633 97.490387 
L 71.571374 95.94108 
L 70.220476 94.391774 
L 69.134289 92.842467 
L 68.320686 91.293161 
L 67.785946 89.743854 
L 67.534659 88.194548 
L 67.569635 86.645241 
L 67.891846 85.095935 
L 68.500381 83.546628 
L 69.392451 81.997321 
L 70.563416 80.448015 
L 72.006857 78.898708 
L 73.714697 77.349402 
L 75.677346 75.800095 
L 77.883902 74.250789 
L 80.322369 72.701482 
L 82.97991 71.152176 
L 85.843109 69.602869 
L 88.89825 68.053563 
L 92.131584 66.504256 
L 95.529582 64.954949 
L 99.079169 63.405643 
L 102.767914 61.856336 
L 106.584188 60.30703 
L 110.517259 58.757723 
L 114.557349 57.208417 
L 118.695622 55.65911 
L 122.924126 54.109804 
L 127.235684 52.560497 
L 131.623741 51.01119 
L 136.082169 49.461884 
L 140.60506 47.912577 
L 145.186489 46.363271 
L 149.820285 44.813964 
L 154.499813 43.264658 
L 159.217768 41.715351 
L 163.966009 40.166045 
L 168.735433 38.616738 
L 173.515892 37.067432 
L 178.296171 35.518125 
L 362.591329 35.518125 
L 362.591329 35.518125 
L 367.371608 37.067432 
L 372.152067 38.616738 
L 376.921491 40.166045 
L 381.669732 41.715351 
L 386.387687 43.264658 
L 391.067215 44.813964 
L 395.701011 46.363271 
L 400.28244 47.912577 
L 404.805331 49.461884 
L 409.263759 51.01119 
L 413.651816 52.560497 
L 417.963374 54.109804 
L 422.191878 55.65911 
L 426.330151 57.208417 
L 430.370241 58.757723 
L 434.303312 60.30703 
L 438.119586 61.856336 
L 441.808331 63.405643 
L 445.357918 64.954949 
L 448.755916 66.504256 
L 451.98925 68.053563 
L 455.044391 69.602869 
L 457.90759 71.152176 
L 460.565131 72.701482 
L 463.003598 74.250789 
L 465.210154 75.800095 
L 467.172803 77.349402 
L 468.880643 78.898708 
L 470.324084 80.448015 
L 471.495049 81.997321 
L 472.387119 83.546628 
L 472.995654 85.095935 
L 473.317865 86.645241 
L 473.352841 88.194548 
L 473.101554 89.743854 
L 472.566814 91.293161 
L 471.753211 92.842467 
L 470.667024 94.391774 
L 469.316126 95.94108 
L 467.709867 97.490387 
L 465.858967 99.039694 
L 463.775396 100.589 
L 461.472268 102.138307 
L 458.963729 103.687613 
L 456.26486 105.23692 
L 453.391578 106.786226 
L 450.360538 108.335533 
L 447.18904 109.884839 
L 443.894924 111.434146 
L 440.496466 112.983452 
L 437.012257 114.532759 
L 433.461071 116.082066 
L 429.861721 117.631372 
L 426.232899 119.180679 
L 422.593 120.729985 
L 418.959942 122.279292 
L 415.350969 123.828598 
L 411.782457 125.377905 
L 408.269723 126.927211 
L 404.826837 128.476518 
L 401.46645 130.025825 
L 398.199645 131.575131 
L 395.035814 133.124438 
L 391.982554 134.673744 
L 389.045614 136.223051 
L 386.228862 137.772357 
L 383.534295 139.321664 
L 380.962086 140.87097 
L 378.510659 142.420277 
L 376.176801 143.969583 
L 373.955789 145.51889 
L 371.841552 147.068197 
L 369.826836 148.617503 
L 367.903386 150.16681 
L 366.062127 151.716116 
L 364.293349 153.265423 
L 362.586884 154.814729 
L 360.932273 156.364036 
L 359.318927 157.913342 
L 357.73627 159.462649 
L 356.173871 161.011956 
L 354.621561 162.561262 
L 353.069547 164.110569 
L 351.508499 165.659875 
L 349.929646 167.209182 
L 348.324853 168.758488 
L 346.6867 170.307795 
L 345.008554 171.857101 
L 343.284642 173.406408 
L 341.510114 174.955714 
L 339.681115 176.505021 
L 337.794839 178.054328 
L 335.849589 179.603634 
L 333.844818 181.152941 
L 331.781168 182.702247 
L 329.660489 184.251554 
L 327.485838 185.80086 
L 325.261466 187.350167 
L 322.99278 188.899473 
z
" clip-path="url(#p7df3a36b37)" style="fill: #1f77b4; fill-opacity: 0.3"/>
   </g>
   <g id="matplotlib.axis_1">
    <g id="xtick_1">
     <g id="line2d_1">
      <defs>
       <path id="m4e5696688a" d="M 0 0 
L 0 3.5 
" style="stroke: #000000; stroke-width: 0.8"/>
      </defs>
      <g>
       <use xlink:href="#m4e5696688a" x="270.44375" y="299.518125" style="stroke: #000000; stroke-width: 0.8"/>
      </g>
     </g>
     <g id="text_1">
      <!-- blockchain -->
      <g transform="translate(243.636719 314.116563) scale(0.1 -0.1)">
       <defs>
        <path id="DejaVuSans-62" d="M 3116 1747 
Q 3116 2381 2855 2742 
Q 2594 3103 2138 3103 
Q 1681 3103 1420 2742 
Q 1159 2381 1159 1747 
Q 1159 1113 1420 752 
Q 1681 391 2138 391 
Q 2594 391 2855 752 
Q 3116 1113 3116 1747 
z
M 1159 2969 
Q 1341 3281 1617 3432 
Q 1894 3584 2278 3584 
Q 2916 3584 3314 3078 
Q 3713 2572 3713 1747 
Q 3713 922 3314 415 
Q 2916 -91 2278 -91 
Q 1894 -91 1617 61 
Q 1341 213 1159 525 
L 1159 0 
L 581 0 
L 581 4863 
L 1159 4863 
L 1159 2969 
z
" transform="scale(0.015625)"/>
        <path id="DejaVuSans-6c" d="M 603 4863 
L 1178 4863 
L 1178 0 
L 603 0 
L 603 4863 
z
" transform="scale(0.015625)"/>
        <path id="DejaVuSans-6f" d="M 1959 3097 
Q 1497 3097 1228 2736 
Q 959 2375 959 1747 
Q 959 1119 1226 758 
Q 1494 397 1959 397 
Q 2419 397 2687 759 
Q 2956 1122 2956 1747 
Q 2956 2369 2687 2733 
Q 2419 3097 1959 3097 
z
M 1959 3584 
Q 2709 3584 3137 3096 
Q 3566 2609 3566 1747 
Q 3566 888 3137 398 
Q 2709 -91 1959 -91 
Q 1206 -91 779 398 
Q 353 888 353 1747 
Q 353 2609 779 3096 
Q 1206 3584 1959 3584 
z
" transform="scale(0.015625)"/>
        <path id="DejaVuSans-63" d="M 3122 3366 
L 3122 2828 
Q 2878 2963 2633 3030 
Q 2388 3097 2138 3097 
Q 1578 3097 1268 2742 
Q 959 2388 959 1747 
Q 959 1106 1268 751 
Q 1578 397 2138 397 
Q 2388 397 2633 464 
Q 2878 531 3122 666 
L 3122 134 
Q 2881 22 2623 -34 
Q 2366 -91 2075 -91 
Q 1284 -91 818 406 
Q 353 903 353 1747 
Q 353 2603 823 3093 
Q 1294 3584 2113 3584 
Q 2378 3584 2631 3529 
Q 2884 3475 3122 3366 
z
" transform="scale(0.015625)"/>
        <path id="DejaVuSans-6b" d="M 581 4863 
L 1159 4863 
L 1159 1991 
L 2875 3500 
L 3609 3500 
L 1753 1863 
L 3688 0 
L 2938 0 
L 1159 1709 
L 1159 0 
L 581 0 
L 581 4863 
z
" transform="scale(0.015625)"/>
        <path id="DejaVuSans-68" d="M 3513 2113 
L 3513 0 
L 2938 0 
L 2938 2094 
Q 2938 2591 2744 2837 
Q 2550 3084 2163 3084 
Q 1697 3084 1428 2787 
Q 1159 2491 1159 1978 
L 1159 0 
L 581 0 
L 581 4863 
L 1159 4863 
L 1159 2956 
Q 1366 3272 1645 3428 
Q 1925 3584 2291 3584 
Q 2894 3584 3203 3211 
Q 3513 2838 3513 2113 
z
" transform="scale(0.015625)"/>
        <path id="DejaVuSans-61" d="M 2194 1759 
Q 1497 1759 1228 1600 
Q 959 1441 959 1056 
Q 959 750 1161 570 
Q 1363 391 1709 391 
Q 2188 391 2477 730 
Q 2766 1069 2766 1631 
L 2766 1759 
L 2194 1759 
z
M 3341 1997 
L 3341 0 
L 2766 0 
L 2766 531 
Q 2569 213 2275 61 
Q 1981 -91 1556 -91 
Q 1019 -91 701 211 
Q 384 513 384 1019 
Q 384 1609 779 1909 
Q 1175 2209 1959 2209 
L 2766 2209 
L 2766 2266 
Q 2766 2663 2505 2880 
Q 2244 3097 1772 3097 
Q 1472 3097 1187 3025 
Q 903 2953 641 2809 
L 641 3341 
Q 956 3463 1253 3523 
Q 1550 3584 1831 3584 
Q 2591 3584 2966 3190 
Q 3341 2797 3341 1997 
z
" transform="scale(0.015625)"/>
        <path id="DejaVuSans-69" d="M 603 3500 
L 1178 3500 
L 1178 0 
L 603 0 
L 603 3500 
z
M 603 4863 
L 1178 4863 
L 1178 4134 
L 603 4134 
L 603 4863 
z
" transform="scale(0.015625)"/>
        <path id="DejaVuSans-6e" d="M 3513 2113 
L 3513 0 
L 2938 0 
L 2938 2094 
Q 2938 2591 2744 2837 
Q 2550 3084 2163 3084 
Q 1697 3084 1428 2787 
Q 1159 2491 1159 1978 
L 1159 0 
L 581 0 
L 581 3500 
L 1159 3500 
L 1159 2956 
Q 1366 3272 1645 3428 
Q 1925 3584 2291 3584 
Q 2894 3584 3203 3211 
Q 3513 2838 3513 2113 
z
" transform="scale(0.015625)"/>
       </defs>
       <use xlink:href="#DejaVuSans-62"/>
       <use xlink:href="#DejaVuSans-6c" transform="translate(63.476562 0)"/>
       <use xlink:href="#DejaVuSans-6f" transform="translate(91.259766 0)"/>
       <use xlink:href="#DejaVuSans-63" transform="translate(152.441406 0)"/>
       <use xlink:href="#DejaVuSans-6b" transform="translate(207.421875 0)"/>
       <use xlink:href="#DejaVuSans-63" transform="translate(265.332031 0)"/>
       <use xlink:href="#DejaVuSans-68" transform="translate(320.3125 0)"/>
       <use xlink:href="#DejaVuSans-61" transform="translate(383.691406 0)"/>
       <use xlink:href="#DejaVuSans-69" transform="translate(444.970703 0)"/>
       <use xlink:href="#DejaVuSans-6e" transform="translate(472.753906 0)"/>
      </g>
     </g>
    </g>
   </g>
   <g id="matplotlib.axis_2">
    <g id="ytick_1">
     <g id="line2d_2">
      <defs>
       <path id="m803492d3da" d="M 0 0 
L -3.5 0 
" style="stroke: #000000; stroke-width: 0.8"/>
      </defs>
      <g>
       <use xlink:href="#m803492d3da" x="47.24375" y="299.518125" style="stroke: #000000; stroke-width: 0.8"/>
      </g>
     </g>
     <g id="text_2">
      <!-- 0 -->
      <g transform="translate(33.88125 303.317344) scale(0.1 -0.1)">
       <defs>
        <path id="DejaVuSans-30" d="M 2034 4250 
Q 1547 4250 1301 3770 
Q 1056 3291 1056 2328 
Q 1056 1369 1301 889 
Q 1547 409 2034 409 
Q 2525 409 2770 889 
Q 3016 1369 3016 2328 
Q 3016 3291 2770 3770 
Q 2525 4250 2034 4250 
z
M 2034 4750 
Q 2819 4750 3233 4129 
Q 3647 3509 3647 2328 
Q 3647 1150 3233 529 
Q 2819 -91 2034 -91 
Q 1250 -91 836 529 
Q 422 1150 422 2328 
Q 422 3509 836 4129 
Q 1250 4750 2034 4750 
z
" transform="scale(0.015625)"/>
       </defs>
       <use xlink:href="#DejaVuSans-30"/>
      </g>
     </g>
    </g>
    <g id="ytick_2">
     <g id="line2d_3">
      <g>
       <use xlink:href="#m803492d3da" x="47.24375" y="247.032201" style="stroke: #000000; stroke-width: 0.8"/>
      </g>
     </g>
     <g id="text_3">
      <!-- 100 -->
      <g transform="translate(21.15625 250.83142) scale(0.1 -0.1)">
       <defs>
        <path id="DejaVuSans-31" d="M 794 531 
L 1825 531 
L 1825 4091 
L 703 3866 
L 703 4441 
L 1819 4666 
L 2450 4666 
L 2450 531 
L 3481 531 
L 3481 0 
L 794 0 
L 794 531 
z
" transform="scale(0.015625)"/>
       </defs>
       <use xlink:href="#DejaVuSans-31"/>
       <use xlink:href="#DejaVuSans-30" transform="translate(63.623047 0)"/>
       <use xlink:href="#DejaVuSans-30" transform="translate(127.246094 0)"/>
      </g>
     </g>
    </g>
    <g id="ytick_3">
     <g id="line2d_4">
      <g>
       <use xlink:href="#m803492d3da" x="47.24375" y="194.546277" style="stroke: #000000; stroke-width: 0.8"/>
      </g>
     </g>
     <g id="text_4">
      <!-- 200 -->
      <g transform="translate(21.15625 198.345495) scale(0.1 -0.1)">
       <defs>
        <path id="DejaVuSans-32" d="M 1228 531 
L 3431 531 
L 3431 0 
L 469 0 
L 469 531 
Q 828 903 1448 1529 
Q 2069 2156 2228 2338 
Q 2531 2678 2651 2914 
Q 2772 3150 2772 3378 
Q 2772 3750 2511 3984 
Q 2250 4219 1831 4219 
Q 1534 4219 1204 4116 
Q 875 4013 500 3803 
L 500 4441 
Q 881 4594 1212 4672 
Q 1544 4750 1819 4750 
Q 2544 4750 2975 4387 
Q 3406 4025 3406 3419 
Q 3406 3131 3298 2873 
Q 3191 2616 2906 2266 
Q 2828 2175 2409 1742 
Q 1991 1309 1228 531 
z
" transform="scale(0.015625)"/>
       </defs>
       <use xlink:href="#DejaVuSans-32"/>
       <use xlink:href="#DejaVuSans-30" transform="translate(63.623047 0)"/>
       <use xlink:href="#DejaVuSans-30" transform="translate(127.246094 0)"/>
      </g>
     </g>
    </g>
    <g id="ytick_4">
     <g id="line2d_5">
      <g>
       <use xlink:href="#m803492d3da" x="47.24375" y="142.060352" style="stroke: #000000; stroke-width: 0.8"/>
      </g>
     </g>
     <g id="text_5">
      <!-- 300 -->
      <g transform="translate(21.15625 145.859571) scale(0.1 -0.1)">
       <defs>
        <path id="DejaVuSans-33" d="M 2597 2516 
Q 3050 2419 3304 2112 
Q 3559 1806 3559 1356 
Q 3559 666 3084 287 
Q 2609 -91 1734 -91 
Q 1441 -91 1130 -33 
Q 819 25 488 141 
L 488 750 
Q 750 597 1062 519 
Q 1375 441 1716 441 
Q 2309 441 2620 675 
Q 2931 909 2931 1356 
Q 2931 1769 2642 2001 
Q 2353 2234 1838 2234 
L 1294 2234 
L 1294 2753 
L 1863 2753 
Q 2328 2753 2575 2939 
Q 2822 3125 2822 3475 
Q 2822 3834 2567 4026 
Q 2313 4219 1838 4219 
Q 1578 4219 1281 4162 
Q 984 4106 628 3988 
L 628 4550 
Q 988 4650 1302 4700 
Q 1616 4750 1894 4750 
Q 2613 4750 3031 4423 
Q 3450 4097 3450 3541 
Q 3450 3153 3228 2886 
Q 3006 2619 2597 2516 
z
" transform="scale(0.015625)"/>
       </defs>
       <use xlink:href="#DejaVuSans-33"/>
       <use xlink:href="#DejaVuSans-30" transform="translate(63.623047 0)"/>
       <use xlink:href="#DejaVuSans-30" transform="translate(127.246094 0)"/>
      </g>
     </g>
    </g>
    <g id="ytick_5">
     <g id="line2d_6">
      <g>
       <use xlink:href="#m803492d3da" x="47.24375" y="89.574428" style="stroke: #000000; stroke-width: 0.8"/>
      </g>
     </g>
     <g id="text_6">
      <!-- 400 -->
      <g transform="translate(21.15625 93.373647) scale(0.1 -0.1)">
       <defs>
        <path id="DejaVuSans-34" d="M 2419 4116 
L 825 1625 
L 2419 1625 
L 2419 4116 
z
M 2253 4666 
L 3047 4666 
L 3047 1625 
L 3713 1625 
L 3713 1100 
L 3047 1100 
L 3047 0 
L 2419 0 
L 2419 1100 
L 313 1100 
L 313 1709 
L 2253 4666 
z
" transform="scale(0.015625)"/>
       </defs>
       <use xlink:href="#DejaVuSans-34"/>
       <use xlink:href="#DejaVuSans-30" transform="translate(63.623047 0)"/>
       <use xlink:href="#DejaVuSans-30" transform="translate(127.246094 0)"/>
      </g>
     </g>
    </g>
    <g id="ytick_6">
     <g id="line2d_7">
      <g>
       <use xlink:href="#m803492d3da" x="47.24375" y="37.088504" style="stroke: #000000; stroke-width: 0.8"/>
      </g>
     </g>
     <g id="text_7">
      <!-- 500 -->
      <g transform="translate(21.15625 40.887723) scale(0.1 -0.1)">
       <defs>
        <path id="DejaVuSans-35" d="M 691 4666 
L 3169 4666 
L 3169 4134 
L 1269 4134 
L 1269 2991 
Q 1406 3038 1543 3061 
Q 1681 3084 1819 3084 
Q 2600 3084 3056 2656 
Q 3513 2228 3513 1497 
Q 3513 744 3044 326 
Q 2575 -91 1722 -91 
Q 1428 -91 1123 -41 
Q 819 9 494 109 
L 494 744 
Q 775 591 1075 516 
Q 1375 441 1709 441 
Q 2250 441 2565 725 
Q 2881 1009 2881 1497 
Q 2881 1984 2565 2268 
Q 2250 2553 1709 2553 
Q 1456 2553 1204 2497 
Q 953 2441 691 2322 
L 691 4666 
z
" transform="scale(0.015625)"/>
       </defs>
       <use xlink:href="#DejaVuSans-35"/>
       <use xlink:href="#DejaVuSans-30" transform="translate(63.623047 0)"/>
       <use xlink:href="#DejaVuSans-30" transform="translate(127.246094 0)"/>
      </g>
     </g>
    </g>
    <g id="text_8">
     <!-- decision_latency_ms -->
     <g transform="translate(14.798438 212.37125) rotate(-90) scale(0.1 -0.1)">
      <defs>
       <path id="DejaVuSans-64" d="M 2906 2969 
L 2906 4863 
L 3481 4863 
L 3481 0 
L 2906 0 
L 2906 525 
Q 2725 213 2448 61 
Q 2172 -91 1784 -91 
Q 1150 -91 751 415 
Q 353 922 353 1747 
Q 353 2572 751 3078 
Q 1150 3584 1784 3584 
Q 2172 3584 2448 3432 
Q 2725 3281 2906 2969 
z
M 947 1747 
Q 947 1113 1208 752 
Q 1469 391 1925 391 
Q 2381 391 2643 752 
Q 2906 1113 2906 1747 
Q 2906 2381 2643 2742 
Q 2381 3103 1925 3103 
Q 1469 3103 1208 2742 
Q 947 2381 947 1747 
z
" transform="scale(0.015625)"/>
       <path id="DejaVuSans-65" d="M 3597 1894 
L 3597 1613 
L 953 1613 
Q 991 1019 1311 708 
Q 1631 397 2203 397 
Q 2534 397 2845 478 
Q 3156 559 3463 722 
L 3463 178 
Q 3153 47 2828 -22 
Q 2503 -91 2169 -91 
Q 1331 -91 842 396 
Q 353 884 353 1716 
Q 353 2575 817 3079 
Q 1281 3584 2069 3584 
Q 2775 3584 3186 3129 
Q 3597 2675 3597 1894 
z
M 3022 2063 
Q 3016 2534 2758 2815 
Q 2500 3097 2075 3097 
Q 1594 3097 1305 2825 
Q 1016 2553 972 2059 
L 3022 2063 
z
" transform="scale(0.015625)"/>
       <path id="DejaVuSans-73" d="M 2834 3397 
L 2834 2853 
Q 2591 2978 2328 3040 
Q 2066 3103 1784 3103 
Q 1356 3103 1142 2972 
Q 928 2841 928 2578 
Q 928 2378 1081 2264 
Q 1234 2150 1697 2047 
L 1894 2003 
Q 2506 1872 2764 1633 
Q 3022 1394 3022 966 
Q 3022 478 2636 193 
Q 2250 -91 1575 -91 
Q 1294 -91 989 -36 
Q 684 19 347 128 
L 347 722 
Q 666 556 975 473 
Q 1284 391 1588 391 
Q 1994 391 2212 530 
Q 2431 669 2431 922 
Q 2431 1156 2273 1281 
Q 2116 1406 1581 1522 
L 1381 1569 
Q 847 1681 609 1914 
Q 372 2147 372 2553 
Q 372 3047 722 3315 
Q 1072 3584 1716 3584 
Q 2034 3584 2315 3537 
Q 2597 3491 2834 3397 
z
" transform="scale(0.015625)"/>
       <path id="DejaVuSans-5f" d="M 3263 -1063 
L 3263 -1509 
L -63 -1509 
L -63 -1063 
L 3263 -1063 
z
" transform="scale(0.015625)"/>
       <path id="DejaVuSans-74" d="M 1172 4494 
L 1172 3500 
L 2356 3500 
L 2356 3053 
L 1172 3053 
L 1172 1153 
Q 1172 725 1289 603 
Q 1406 481 1766 481 
L 2356 481 
L 2356 0 
L 1766 0 
Q 1100 0 847 248 
Q 594 497 594 1153 
L 594 3053 
L 172 3053 
L 172 3500 
L 594 3500 
L 594 4494 
L 1172 4494 
z
" transform="scale(0.015625)"/>
       <path id="DejaVuSans-79" d="M 2059 -325 
Q 1816 -950 1584 -1140 
Q 1353 -1331 966 -1331 
L 506 -1331 
L 506 -850 
L 844 -850 
Q 1081 -850 1212 -737 
Q 1344 -625 1503 -206 
L 1606 56 
L 191 3500 
L 800 3500 
L 1894 763 
L 2988 3500 
L 3597 3500 
L 2059 -325 
z
" transform="scale(0.015625)"/>
       <path id="DejaVuSans-6d" d="M 3328 2828 
Q 3544 3216 3844 3400 
Q 4144 3584 4550 3584 
Q 5097 3584 5394 3201 
Q 5691 2819 5691 2113 
L 5691 0 
L 5113 0 
L 5113 2094 
Q 5113 2597 4934 2840 
Q 4756 3084 4391 3084 
Q 3944 3084 3684 2787 
Q 3425 2491 3425 1978 
L 3425 0 
L 2847 0 
L 2847 2094 
Q 2847 2600 2669 2842 
Q 2491 3084 2119 3084 
Q 1678 3084 1418 2786 
Q 1159 2488 1159 1978 
L 1159 0 
L 581 0 
L 581 3500 
L 1159 3500 
L 1159 2956 
Q 1356 3278 1631 3431 
Q 1906 3584 2284 3584 
Q 2666 3584 2933 3390 
Q 3200 3197 3328 2828 
z
" transform="scale(0.015625)"/>
      </defs>
      <use xlink:href="#DejaVuSans-64"/>
      <use xlink:href="#DejaVuSans-65" transform="translate(63.476562 0)"/>
      <use xlink:href="#DejaVuSans-63" transform="translate(125 0)"/>
      <use xlink:href="#DejaVuSans-69" transform="translate(179.980469 0)"/>
      <use xlink:href="#DejaVuSans-73" transform="translate(207.763672 0)"/>
      <use xlink:href="#DejaVuSans-69" transform="translate(259.863281 0)"/>
      <use xlink:href="#DejaVuSans-6f" transform="translate(287.646484 0)"/>
      <use xlink:href="#DejaVuSans-6e" transform="translate(348.828125 0)"/>
      <use xlink:href="#DejaVuSans-5f" transform="translate(412.207031 0)"/>
      <use xlink:href="#DejaVuSans-6c" transform="translate(462.207031 0)"/>
      <use xlink:href="#DejaVuSans-61" transform="translate(489.990234 0)"/>
      <use xlink:href="#DejaVuSans-74" transform="translate(551.269531 0)"/>
      <use xlink:href="#DejaVuSans-65" transform="translate(590.478516 0)"/>
      <use xlink:href="#DejaVuSans-6e" transform="translate(652.001953 0)"/>
      <use xlink:href="#DejaVuSans-63" transform="translate(715.380859 0)"/>
      <use xlink:href="#DejaVuSans-79" transform="translate(770.361328 0)"/>
      <use xlink:href="#DejaVuSans-5f" transform="translate(829.541016 0)"/>
      <use xlink:href="#DejaVuSans-6d" transform="translate(879.541016 0)"/>
      <use xlink:href="#DejaVuSans-73" transform="translate(976.953125 0)"/>
     </g>
    </g>
   </g>
   <g id="LineCollection_1">
    <path d="M 168.989205 100.9443 
L 371.898295 100.9443 
" clip-path="url(#p7df3a36b37)" style="fill: none; stroke: #1f77b4; stroke-width: 1.5"/>
   </g>
   <g id="LineCollection_2">
    <path d="M 168.989205 35.518125 
L 371.898295 35.518125 
" clip-path="url(#p7df3a36b37)" style="fill: none; stroke: #1f77b4; stroke-width: 1.5"/>
   </g>
   <g id="LineCollection_3">
    <path d="M 168.989205 188.899473 
L 371.898295 188.899473 
" clip-path="url(#p7df3a36b37)" style="fill: none; stroke: #1f77b4; stroke-width: 1.5"/>
   </g>
   <g id="LineCollection_4">
    <path d="M 270.44375 188.899473 
L 270.44375 35.518125 
" clip-path="url(#p7df3a36b37)" style="fill: none; stroke: #1f77b4; stroke-width: 1.5"/>
   </g>
   <g id="LineCollection_5">
    <path d="M 168.989205 94.805149 
L 371.898295 94.805149 
" clip-path="url(#p7df3a36b37)" style="fill: none; stroke: #1f77b4; stroke-width: 1.5"/>
   </g>
   <g id="patch_3">
    <path d="M 47.24375 299.518125 
L 47.24375 22.318125 
" style="fill: none; stroke: #000000; stroke-width: 0.8; stroke-linejoin: miter; stroke-linecap: square"/>
   </g>
   <g id="patch_4">
    <path d="M 493.64375 299.518125 
L 493.64375 22.318125 
" style="fill: none; stroke: #000000; stroke-width: 0.8; stroke-linejoin: miter; stroke-linecap: square"/>
   </g>
   <g id="patch_5">
    <path d="M 47.24375 299.518125 
L 493.64375 299.518125 
" style="fill: none; stroke: #000000; stroke-width: 0.8; stroke-linejoin: miter; stroke-linecap: square"/>
   </g>
   <g id="patch_6">
    <path d="M 47.24375 22.318125 
L 493.64375 22.318125 
" style="fill: none; stroke: #000000; stroke-width: 0.8; stroke-linejoin: miter; stroke-linecap: square"/>
   </g>
   <g id="text_9">
    <!-- Decision latency violin plot (warm-ups excluded) -->
    <g transform="translate(124.314688 16.318125) scale(0.12 -0.12)">
     <defs>
      <path id="DejaVuSans-44" d="M 1259 4147 
L 1259 519 
L 2022 519 
Q 2988 519 3436 956 
Q 3884 1394 3884 2338 
Q 3884 3275 3436 3711 
Q 2988 4147 2022 4147 
L 1259 4147 
z
M 628 4666 
L 1925 4666 
Q 3281 4666 3915 4102 
Q 4550 3538 4550 2338 
Q 4550 1131 3912 565 
Q 3275 0 1925 0 
L 628 0 
L 628 4666 
z
" transform="scale(0.015625)"/>
      <path id="DejaVuSans-20" transform="scale(0.015625)"/>
      <path id="DejaVuSans-76" d="M 191 3500 
L 800 3500 
L 1894 563 
L 2988 3500 
L 3597 3500 
L 2284 0 
L 1503 0 
L 191 3500 
z
" transform="scale(0.015625)"/>
      <path id="DejaVuSans-70" d="M 1159 525 
L 1159 -1331 
L 581 -1331 
L 581 3500 
L 1159 3500 
L 1159 2969 
Q 1341 3281 1617 3432 
Q 1894 3584 2278 3584 
Q 2916 3584 3314 3078 
Q 3713 2572 3713 1747 
Q 3713 922 3314 415 
Q 2916 -91 2278 -91 
Q 1894 -91 1617 61 
Q 1341 213 1159 525 
z
M 3116 1747 
Q 3116 2381 2855 2742 
Q 2594 3103 2138 3103 
Q 1681 3103 1420 2742 
Q 1159 2381 1159 1747 
Q 1159 1113 1420 752 
Q 1681 391 2138 391 
Q 2594 391 2855 752 
Q 3116 1113 3116 1747 
z
" transform="scale(0.015625)"/>
      <path id="DejaVuSans-28" d="M 1984 4856 
Q 1566 4138 1362 3434 
Q 1159 2731 1159 2009 
Q 1159 1288 1364 580 
Q 1569 -128 1984 -844 
L 1484 -844 
Q 1016 -109 783 600 
Q 550 1309 550 2009 
Q 550 2706 781 3412 
Q 1013 4119 1484 4856 
L 1984 4856 
z
" transform="scale(0.015625)"/>
      <path id="DejaVuSans-77" d="M 269 3500 
L 844 3500 
L 1563 769 
L 2278 3500 
L 2956 3500 
L 3675 769 
L 4391 3500 
L 4966 3500 
L 4050 0 
L 3372 0 
L 2619 2869 
L 1863 0 
L 1184 0 
L 269 3500 
z
" transform="scale(0.015625)"/>
      <path id="DejaVuSans-72" d="M 2631 2963 
Q 2534 3019 2420 3045 
Q 2306 3072 2169 3072 
Q 1681 3072 1420 2755 
Q 1159 2438 1159 1844 
L 1159 0 
L 581 0 
L 581 3500 
L 1159 3500 
L 1159 2956 
Q 1341 3275 1631 3429 
Q 1922 3584 2338 3584 
Q 2397 3584 2469 3576 
Q 2541 3569 2628 3553 
L 2631 2963 
z
" transform="scale(0.015625)"/>
      <path id="DejaVuSans-2d" d="M 313 2009 
L 1997 2009 
L 1997 1497 
L 313 1497 
L 313 2009 
z
" transform="scale(0.015625)"/>
      <path id="DejaVuSans-75" d="M 544 1381 
L 544 3500 
L 1119 3500 
L 1119 1403 
Q 1119 906 1312 657 
Q 1506 409 1894 409 
Q 2359 409 2629 706 
Q 2900 1003 2900 1516 
L 2900 3500 
L 3475 3500 
L 3475 0 
L 2900 0 
L 2900 538 
Q 2691 219 2414 64 
Q 2138 -91 1772 -91 
Q 1169 -91 856 284 
Q 544 659 544 1381 
z
M 1991 3584 
L 1991 3584 
z
" transform="scale(0.015625)"/>
      <path id="DejaVuSans-78" d="M 3513 3500 
L 2247 1797 
L 3578 0 
L 2900 0 
L 1881 1375 
L 863 0 
L 184 0 
L 1544 1831 
L 300 3500 
L 978 3500 
L 1906 2253 
L 2834 3500 
L 3513 3500 
z
" transform="scale(0.015625)"/>
      <path id="DejaVuSans-29" d="M 513 4856 
L 1013 4856 
Q 1481 4119 1714 3412 
Q 1947 2706 1947 2009 
Q 1947 1309 1714 600 
Q 1481 -109 1013 -844 
L 513 -844 
Q 928 -128 1133 580 
Q 1338 1288 1338 2009 
Q 1338 2731 1133 3434 
Q 928 4138 513 4856 
z
" transform="scale(0.015625)"/>
     </defs>
     <use xlink:href="#DejaVuSans-44"/>
     <use xlink:href="#DejaVuSans-65" transform="translate(77.001953 0)"/>
     <use xlink:href="#DejaVuSans-63" transform="translate(138.525391 0)"/>
     <use xlink:href="#DejaVuSans-69" transform="translate(193.505859 0)"/>
     <use xlink:href="#DejaVuSans-73" transform="translate(221.289062 0)"/>
     <use xlink:href="#DejaVuSans-69" transform="translate(273.388672 0)"/>
     <use xlink:href="#DejaVuSans-6f" transform="translate(301.171875 0)"/>
     <use xlink:href="#DejaVuSans-6e" transform="translate(362.353516 0)"/>
     <use xlink:href="#DejaVuSans-20" transform="translate(425.732422 0)"/>
     <use xlink:href="#DejaVuSans-6c" transform="translate(457.519531 0)"/>
     <use xlink:href="#DejaVuSans-61" transform="translate(485.302734 0)"/>
     <use xlink:href="#DejaVuSans-74" transform="translate(546.582031 0)"/>
     <use xlink:href="#DejaVuSans-65" transform="translate(585.791016 0)"/>
     <use xlink:href="#DejaVuSans-6e" transform="translate(647.314453 0)"/>
     <use xlink:href="#DejaVuSans-63" transform="translate(710.693359 0)"/>
     <use xlink:href="#DejaVuSans-79" transform="translate(765.673828 0)"/>
     <use xlink:href="#DejaVuSans-20" transform="translate(824.853516 0)"/>
     <use xlink:href="#DejaVuSans-76" transform="translate(856.640625 0)"/>
     <use xlink:href="#DejaVuSans-69" transform="translate(915.820312 0)"/>
     <use xlink:href="#DejaVuSans-6f" transform="translate(943.603516 0)"/>
     <use xlink:href="#DejaVuSans-6c" transform="translate(1004.785156 0)"/>
     <use xlink:href="#DejaVuSans-69" transform="translate(1032.568359 0)"/>
     <use xlink:href="#DejaVuSans-6e" transform="translate(1060.351562 0)"/>
     <use xlink:href="#DejaVuSans-20" transform="translate(1123.730469 0)"/>
     <use xlink:href="#DejaVuSans-70" transform="translate(1155.517578 0)"/>
     <use xlink:href="#DejaVuSans-6c" transform="translate(1218.994141 0)"/>
     <use xlink:href="#DejaVuSans-6f" transform="translate(1246.777344 0)"/>
     <use xlink:href="#DejaVuSans-74" transform="translate(1307.958984 0)"/>
     <use xlink:href="#DejaVuSans-20" transform="translate(1347.167969 0)"/>
     <use xlink:href="#DejaVuSans-28" transform="translate(1378.955078 0)"/>
     <use xlink:href="#DejaVuSans-77" transform="translate(1417.96875 0)"/>
     <use xlink:href="#DejaVuSans-61" transform="translate(1499.755859 0)"/>
     <use xlink:href="#DejaVuSans-72" transform="translate(1561.035156 0)"/>
     <use xlink:href="#DejaVuSans-6d" transform="translate(1600.398438 0)"/>
     <use xlink:href="#DejaVuSans-2d" transform="translate(1697.810547 0)"/>
     <use xlink:href="#DejaVuSans-75" transform="translate(1733.894531 0)"/>
     <use xlink:href="#DejaVuSans-70" transform="translate(1797.273438 0)"/>
     <use xlink:href="#DejaVuSans-73" transform="translate(1860.75 0)"/>
     <use xlink:href="#DejaVuSans-20" transform="translate(1912.849609 0)"/>
     <use xlink:href="#DejaVuSans-65" transform="translate(1944.636719 0)"/>
     <use xlink:href="#DejaVuSans-78" transform="translate(2004.410156 0)"/>
     <use xlink:href="#DejaVuSans-63" transform="translate(2061.839844 0)"/>
     <use xlink:href="#DejaVuSans-6c" transform="translate(2116.820312 0)"/>
     <use xlink:href="#DejaVuSans-75" transform="translate(2144.603516 0)"/>
     <use xlink:href="#DejaVuSans-64" transform="translate(2207.982422 0)"/>
     <use xlink:href="#DejaVuSans-65" transform="translate(2271.458984 0)"/>
     <use xlink:href="#DejaVuSans-64" transform="translate(2332.982422 0)"/>
     <use xlink:href="#DejaVuSans-29" transform="translate(2396.458984 0)"/>
    </g>
   </g>
  </g>
 </g>
 <defs>
  <clipPath id="p7df3a36b37">
   <rect x="47.24375" y="22.318125" width="446.4" height="277.2"/>
  </clipPath>
 </defs>
</svg>
